<svg width="24.000000" height="24.000000" viewBox="0 0 24 24" fill="none" xmlns="http://www.w3.org/2000/svg" xmlns:xlink="http://www.w3.org/1999/xlink">
	<desc>
			Created with Pixso.
	</desc>
	<defs>
		<clipPath id="clip320_13">
			<rect id="Icon" width="24.000000" height="24.000000" fill="white" fill-opacity="0"/>
		</clipPath>
	</defs>
	<g clip-path="url(#clip320_13)">
		<path id="Vector" d="M14.85 17.08C14.94 17.37 15 17.67 15 18C15 19.65 13.65 21 12 21C10.34 21 9 19.65 9 18C9 17.67 9.05 17.37 9.14 17.08M17.99 9.04L17.99 9.75C17.99 12.06 18.87 14.17 20.31 15.77C18.57 16.41 16.75 16.85 14.85 17.08C13.92 17.19 12.96 17.25 11.99 17.25C11.03 17.25 10.07 17.19 9.14 17.08C7.24 16.85 5.42 16.41 3.68 15.77C5.12 14.17 5.99 12.06 5.99 9.75L6 9C6 5.68 8.68 3 12 3C15.31 3 18 5.68 18 9C18 9.01 17.99 9.03 17.99 9.04Z" stroke="#FFFFFF" stroke-opacity="1.000000" stroke-width="1.500000" stroke-linejoin="round"/>
	</g>
</svg>
