<svg width="24.000000" height="24.000000" viewBox="0 0 24 24" fill="none" xmlns="http://www.w3.org/2000/svg" xmlns:xlink="http://www.w3.org/1999/xlink">
	<desc>
			Created with Pixso.
	</desc>
	<defs>
		<clipPath id="clip320_137">
			<rect id="Icon" width="24.000000" height="24.000000" transform="translate(-0.500000 0.000000)" fill="white" fill-opacity="0"/>
		</clipPath>
	</defs>
	<g clip-path="url(#clip320_137)">
		<path id="Vector" d="M5.4 18.5L7.01 18.5C7.5 18.5 7.98 18.57 8.44 18.73L11.55 19.76C12.01 19.92 12.49 20 12.98 20L16.99 20C17.61 20 18.21 19.75 18.6 19.27C20.25 17.21 21.25 14.59 21.25 11.75C21.25 11.31 21.22 10.88 21.18 10.46C21.07 9.44 20.15 8.75 19.12 8.75L16 8.75C15.38 8.75 15.01 8.02 15.27 7.46C15.74 6.49 16 5.4 16 4.25C16 3 14.99 2 13.75 2C13.33 2 13 2.33 13 2.75L13 3.38C13 3.95 12.89 4.52 12.67 5.05C12.37 5.81 11.74 6.38 11.02 6.77C9.91 7.36 8.93 8.18 8.16 9.16C7.66 9.8 6.93 10.25 6.13 10.25M1.75 15.12C1.75 16.34 1.93 17.52 2.27 18.63C2.52 19.48 3.35 20 4.24 20L5.15 20C5.59 20 5.87 19.5 5.67 19.1C5.57 18.9 5.48 18.7 5.4 18.5C4.98 17.45 4.75 16.31 4.75 15.12C4.75 13.41 5.22 11.81 6.05 10.45C6.29 10.05 6.02 9.5 5.55 9.5L4.49 9.5C3.66 9.5 2.88 9.95 2.58 10.72C2.04 12.08 1.75 13.57 1.75 15.12ZM16 8.75L13.75 8.75" stroke="#FFFFFF" stroke-opacity="1.000000" stroke-width="2.000000" stroke-linejoin="round" stroke-linecap="round"/>
	</g>
</svg>
