<svg width="60.000000" height="60.000000" viewBox="0 0 60 60" fill="none" xmlns="http://www.w3.org/2000/svg" xmlns:xlink="http://www.w3.org/1999/xlink">
	<desc>
			Created with Pixso.
	</desc>
	<defs/>
	<path id="Vector" d="M49.78 24.08C49.36 10.93 38.7 0.31 25.51 0C25.17 0 24.89 0.25 24.89 0.59L24.87 9.43C24.87 9.87 24.53 10.21 24.09 10.23C10.93 10.63 0.31 21.3 0 34.49C0 34.83 0.25 35.11 0.59 35.11L9.41 35.13C9.85 35.13 10.19 35.47 10.21 35.91C10.63 49.06 21.31 59.68 34.48 60C34.82 60 35.1 59.74 35.1 59.4L35.12 50.56C35.12 50.12 35.46 49.78 35.9 49.76C49.06 49.34 59.68 38.67 60 25.5C60 25.16 59.74 24.88 59.4 24.88L50.58 24.86C50.14 24.86 49.8 24.52 49.78 24.08ZM34.24 49.7C26.77 49.26 20.77 43.19 20.49 35.67C20.47 35.35 20.21 35.09 19.89 35.09L11.09 35.07C10.63 35.07 10.27 34.69 10.29 34.23C10.73 26.76 16.81 20.76 24.33 20.48C24.65 20.46 24.91 20.2 24.91 19.88L24.93 11.07C24.93 10.61 25.31 10.25 25.77 10.27C33.24 10.71 39.24 16.78 39.52 24.3C39.54 24.62 39.8 24.88 40.12 24.88L48.92 24.9C49.38 24.9 49.74 25.28 49.72 25.74C49.28 33.41 42.9 39.51 35.12 39.51L35.1 48.9C35.08 49.36 34.7 49.72 34.24 49.7Z" fill="#E60000" fill-opacity="1.000000" fill-rule="evenodd"/>
</svg>
