<svg width="199.000000" height="60.000000" viewBox="0 0 199 60" fill="none" xmlns="http://www.w3.org/2000/svg" xmlns:xlink="http://www.w3.org/1999/xlink">
	<desc>
			Created with Pixso.
	</desc>
	<defs>
		<clipPath id="clip0_152">
			<rect id="Icon" width="20.351828" height="20.351828" transform="translate(20.814453 19.889160)" fill="white" fill-opacity="0"/>
		</clipPath>
	</defs>
	<rect id="Vector" width="60.000000" height="60.000000" fill="#FFFFFF" fill-opacity="0"/>
	<path id="Vector" d="M49.78 24.08C49.36 10.93 38.7 0.31 25.51 0C25.17 0 24.89 0.25 24.89 0.59L24.87 9.43C24.87 9.87 24.53 10.21 24.09 10.23C10.93 10.63 0.31 21.3 0 34.49C0 34.83 0.26 35.11 0.59 35.11L9.41 35.13C9.85 35.13 10.19 35.47 10.21 35.91C10.63 49.06 21.31 59.68 34.48 60C34.82 60 35.1 59.74 35.1 59.4L35.12 50.56C35.12 50.12 35.46 49.78 35.9 49.76C49.06 49.34 59.68 38.67 60 25.5C60 25.16 59.74 24.88 59.4 24.88L50.58 24.86C50.14 24.86 49.8 24.52 49.78 24.08ZM34.24 49.7C26.77 49.26 20.77 43.19 20.49 35.67C20.47 35.35 20.21 35.09 19.89 35.09L11.09 35.07C10.63 35.07 10.27 34.69 10.29 34.23C10.73 26.76 16.81 20.76 24.33 20.48C24.65 20.46 24.91 20.2 24.91 19.88L24.93 11.07C24.93 10.61 25.31 10.25 25.77 10.27C33.24 10.71 39.24 16.78 39.52 24.3C39.54 24.62 39.8 24.88 40.12 24.88L48.92 24.9C49.38 24.9 49.74 25.28 49.72 25.74C49.28 33.41 42.9 39.51 35.12 39.51L35.1 48.9C35.08 49.36 34.7 49.72 34.24 49.7Z" fill="#E60000" fill-opacity="1.000000" fill-rule="evenodd"/>
	<g clip-path="url(#clip0_152)">
		<path id="Rectangle 511 (Stroke)" d="M24.63 24.68C24.63 23.47 25.92 22.7 26.98 23.28L36.77 28.67C37.87 29.27 37.87 30.85 36.77 31.45L26.98 36.84C25.92 37.42 24.63 36.65 24.63 35.44L24.63 24.68Z" fill="#FFFFFF" fill-opacity="1.000000" fill-rule="evenodd"/>
	</g>
	<path id="StreamVibe" d="M169.65 22.32C169.65 22.65 169.59 22.95 169.46 23.23C169.34 23.51 169.18 23.76 168.97 23.97C168.76 24.18 168.51 24.34 168.22 24.47C167.95 24.59 167.65 24.65 167.33 24.65C167.01 24.65 166.71 24.59 166.42 24.47C166.14 24.34 165.9 24.18 165.69 23.97C165.48 23.76 165.32 23.51 165.19 23.23C165.08 22.95 165.02 22.65 165.02 22.32C165.02 22.01 165.08 21.71 165.19 21.43C165.32 21.14 165.48 20.89 165.69 20.69C165.9 20.47 166.14 20.31 166.42 20.19C166.71 20.06 167.01 20 167.33 20C167.65 20 167.95 20.06 168.22 20.19C168.51 20.31 168.76 20.47 168.97 20.69C169.18 20.89 169.34 21.14 169.46 21.43C169.59 21.71 169.65 22.01 169.65 22.32ZM86.05 39.74C85.22 39.74 84.43 39.58 83.7 39.27C82.97 38.94 82.33 38.5 81.77 37.95Q81.54 37.71 81.33 37.45L81.33 37.45Q80.81 36.79 80.47 35.99Q80.38 35.77 80.3 35.55Q80 34.63 80 33.61L80 29.55L78.32 29.55L78.32 26.07L80 26.07L80 20.6L83.44 20.6L83.44 26.07L88.66 26.07L88.66 29.55L83.44 29.55L83.44 33.61C83.44 33.98 83.5 34.33 83.64 34.65C83.77 34.97 83.96 35.24 84.2 35.48C84.43 35.72 84.71 35.91 85.03 36.06C85.35 36.19 85.69 36.26 86.05 36.26L88.66 36.26L88.66 39.74L86.05 39.74ZM185.23 32.77C185.23 33.84 185.05 34.82 184.69 35.71C184.33 36.6 183.84 37.36 183.21 38C182.59 38.63 181.86 39.12 181.02 39.47C180.18 39.82 179.29 40 178.33 40C177.37 40 176.48 39.82 175.64 39.46C174.8 39.1 174.07 38.6 173.44 37.96C172.82 37.32 172.32 36.56 171.96 35.69C171.6 34.8 171.42 33.83 171.42 32.77L171.42 20.6L174.88 20.6L174.88 26.99C175.06 26.75 175.29 26.54 175.55 26.35C175.82 26.16 176.1 26.01 176.41 25.89C176.72 25.77 177.04 25.68 177.37 25.62C177.69 25.55 178.01 25.52 178.33 25.52C179.29 25.52 180.18 25.7 181.02 26.07C181.86 26.43 182.59 26.93 183.21 27.58C183.84 28.23 184.33 28.99 184.69 29.88C185.05 30.76 185.23 31.72 185.23 32.77ZM63 26.9Q63 26.01 63.26 25.2L63.26 25.2Q63.33 24.98 63.42 24.77Q63.77 23.97 64.3 23.34Q64.44 23.18 64.59 23.03Q64.88 22.73 65.21 22.48L65.21 22.48Q65.72 22.1 66.32 21.84Q66.56 21.73 66.82 21.65L66.82 21.65Q67.58 21.4 68.42 21.4L76.73 21.4L76.73 25.07L68.42 25.07C68.17 25.07 67.94 25.12 67.72 25.21Q67.57 25.28 67.43 25.37L67.43 25.37L67.43 25.37Q67.27 25.47 67.14 25.61C66.98 25.77 66.85 25.96 66.76 26.18C66.67 26.41 66.62 26.64 66.62 26.9C66.62 27.16 66.67 27.4 66.76 27.63C66.85 27.85 66.98 28.05 67.14 28.22Q67.23 28.3 67.32 28.38Q67.51 28.51 67.72 28.6C67.94 28.69 68.17 28.74 68.42 28.74L72.05 28.74C72.8 28.74 73.5 28.89 74.16 29.18C74.82 29.46 75.4 29.85 75.89 30.35C76.38 30.85 76.77 31.43 77.05 32.1Q77.14 32.32 77.21 32.54L77.21 32.54Q77.48 33.35 77.48 34.24C77.48 35 77.33 35.71 77.05 36.38C76.77 37.04 76.38 37.62 75.89 38.13C75.4 38.62 74.82 39.01 74.16 39.3C73.5 39.59 72.8 39.74 72.05 39.74L64.01 39.74L64.01 36.07L72.05 36.07C72.3 36.07 72.54 36.02 72.76 35.93C72.97 35.83 73.16 35.71 73.32 35.54C73.49 35.37 73.62 35.18 73.72 34.96C73.81 34.73 73.85 34.5 73.85 34.24C73.85 33.98 73.81 33.75 73.72 33.52C73.62 33.3 73.49 33.11 73.32 32.95C73.16 32.78 72.97 32.65 72.76 32.55C72.54 32.46 72.3 32.41 72.05 32.41L68.42 32.41C67.68 32.41 66.97 32.27 66.32 31.98Q65.65 31.68 65.09 31.25Q64.83 31.04 64.59 30.8Q64.4 30.61 64.23 30.4Q63.74 29.79 63.42 29.05Q63.31 28.77 63.22 28.48Q63 27.73 63 26.9ZM164.21 21.4L158.26 39.74L154.64 39.74L148.72 21.4L152.83 21.4L156.44 33.64L160.07 21.4L164.21 21.4ZM106.44 36.39C106.58 36.43 106.71 36.46 106.85 36.48C106.98 36.49 107.12 36.49 107.25 36.49C107.59 36.49 107.91 36.44 108.22 36.35C108.54 36.26 108.83 36.12 109.09 35.95C109.37 35.78 109.62 35.56 109.83 35.31C110.05 35.06 110.22 34.78 110.36 34.47L112.88 37.04C112.56 37.5 112.19 37.91 111.77 38.28C111.36 38.65 110.91 38.96 110.42 39.21C109.94 39.47 109.43 39.66 108.89 39.79C108.36 39.93 107.82 40 107.25 40C106.3 40 105.4 39.82 104.56 39.46C103.73 39.1 103 38.6 102.36 37.96C101.74 37.32 101.25 36.56 100.89 35.69C100.53 34.8 100.34 33.83 100.34 32.77C100.34 31.69 100.53 30.7 100.89 29.8C101.25 28.91 101.74 28.14 102.36 27.51C103 26.88 103.73 26.39 104.56 26.04C105.4 25.69 106.3 25.52 107.25 25.52C107.82 25.52 108.37 25.59 108.91 25.72C109.44 25.86 109.95 26.06 110.43 26.31C110.92 26.57 111.38 26.88 111.8 27.26C112.22 27.62 112.59 28.04 112.91 28.5L106.44 36.39ZM127.64 39.74L126.81 39.74L125.47 37.86C125.14 38.16 124.79 38.44 124.42 38.7C124.06 38.96 123.68 39.18 123.27 39.38C122.87 39.57 122.45 39.72 122.02 39.83C121.6 39.94 121.17 40 120.74 40Q119.47 40 118.33 39.61L118.32 39.61Q118.18 39.56 118.05 39.51Q117.3 39.22 116.66 38.77L116.66 38.77Q116.23 38.47 115.85 38.1C115.23 37.48 114.73 36.72 114.37 35.83Q113.83 34.48 113.83 32.77C113.83 31.7 114.01 30.73 114.37 29.84C114.73 28.95 115.23 28.18 115.85 27.54Q116.29 27.1 116.79 26.75Q117.38 26.34 118.05 26.06Q118.37 25.92 118.71 25.82Q119.68 25.52 120.74 25.52C121.17 25.52 121.61 25.57 122.04 25.69C122.47 25.8 122.88 25.95 123.29 26.15C123.69 26.34 124.07 26.57 124.44 26.84Q124.99 27.23 125.47 27.69L126.81 26.07L127.64 26.07L127.64 39.74ZM192.53 36.39C192.67 36.43 192.8 36.46 192.93 36.48C193.07 36.49 193.2 36.49 193.34 36.49Q193.79 36.49 194.22 36.38L194.22 36.38Q194.27 36.36 194.31 36.35C194.62 36.26 194.91 36.12 195.18 35.95C195.46 35.78 195.7 35.56 195.91 35.31C196.13 35.06 196.31 34.78 196.44 34.47L198.97 37.04C198.65 37.5 198.28 37.91 197.86 38.28C197.45 38.65 197 38.96 196.51 39.21C196.03 39.47 195.52 39.66 194.98 39.79Q194.95 39.8 194.92 39.81Q194.15 40 193.34 40C192.39 40 191.49 39.82 190.65 39.46C189.82 39.1 189.08 38.6 188.45 37.96C187.83 37.32 187.34 36.56 186.97 35.69C186.61 34.8 186.43 33.83 186.43 32.77C186.43 31.69 186.61 30.7 186.97 29.8C187.34 28.91 187.83 28.14 188.45 27.51C189.08 26.88 189.82 26.39 190.65 26.04C191.49 25.69 192.39 25.52 193.34 25.52C193.9 25.52 194.45 25.59 194.99 25.72C195.53 25.86 196.04 26.06 196.52 26.31C197.01 26.57 197.46 26.88 197.88 27.26Q198.15 27.49 198.4 27.76L198.4 27.76Q198.72 28.1 199 28.5L192.53 36.39ZM147.48 39.74L144.05 39.74L144.05 31.04C144.05 30.81 144 30.58 143.91 30.37Q143.84 30.19 143.74 30.04L143.74 30.04Q143.65 29.91 143.54 29.8C143.38 29.64 143.19 29.52 142.98 29.43Q142.87 29.38 142.75 29.35Q142.54 29.29 142.32 29.29C142.08 29.29 141.86 29.34 141.64 29.43C141.44 29.52 141.26 29.64 141.1 29.8C140.95 29.97 140.83 30.15 140.74 30.37C140.65 30.58 140.61 30.81 140.61 31.04L140.61 39.74L137.16 39.74L137.16 31.04C137.16 30.81 137.12 30.58 137.02 30.37C136.94 30.15 136.82 29.97 136.66 29.8C136.5 29.64 136.31 29.52 136.1 29.43C135.89 29.34 135.67 29.29 135.43 29.29C135.2 29.29 134.97 29.34 134.76 29.43C134.56 29.52 134.38 29.64 134.22 29.8C134.07 29.97 133.95 30.15 133.86 30.37C133.77 30.58 133.73 30.81 133.73 31.04L133.73 39.74L130.28 39.74L130.28 26.04L131.12 26.04L132.05 27.09C132.53 26.68 133.06 26.37 133.63 26.15Q134.08 25.97 134.55 25.88L134.55 25.88Q134.99 25.8 135.43 25.8C136.07 25.8 136.68 25.92 137.28 26.16C137.88 26.4 138.41 26.81 138.87 27.4C139.08 27.11 139.32 26.86 139.59 26.66C139.86 26.45 140.14 26.29 140.43 26.16C140.74 26.03 141.05 25.94 141.37 25.89C141.69 25.83 142 25.8 142.32 25.8Q143.17 25.8 143.94 26.06L143.94 26.06Q144.13 26.13 144.32 26.21Q145 26.5 145.55 26.96L145.55 26.96Q145.77 27.13 145.96 27.34C146.44 27.8 146.81 28.36 147.08 29C147.34 29.64 147.48 30.32 147.48 31.04L147.48 39.74ZM94.06 39.74L90.61 39.74L90.61 26.04L91.44 26.04L92.58 27.67Q92.97 27.3 93.42 27.02L93.42 27.02L93.42 27.02Q93.92 26.71 94.47 26.49C95.18 26.21 95.91 26.07 96.67 26.07L99.71 26.07L99.71 29.55L96.67 29.55C96.31 29.55 95.97 29.62 95.65 29.75C95.33 29.89 95.05 30.08 94.81 30.31C94.58 30.55 94.39 30.83 94.26 31.16C94.12 31.48 94.06 31.83 94.06 32.19L94.06 39.74ZM169.06 39.74L165.59 39.74L165.59 26.04L169.06 26.04L169.06 39.74ZM108.21 29.19C108.05 29.13 107.89 29.09 107.73 29.07C107.58 29.06 107.42 29.05 107.25 29.05C106.78 29.05 106.33 29.14 105.91 29.32C105.5 29.49 105.14 29.73 104.83 30.06C104.52 30.38 104.28 30.78 104.11 31.24C103.93 31.69 103.84 32.2 103.84 32.77C103.84 32.9 103.85 33.04 103.85 33.21C103.87 33.37 103.89 33.53 103.92 33.7C103.95 33.87 103.99 34.02 104.03 34.18C104.07 34.33 104.13 34.47 104.2 34.59L108.21 29.19ZM124.17 32.77C124.17 32.29 124.08 31.83 123.89 31.39C123.72 30.94 123.47 30.54 123.16 30.2C122.85 29.85 122.48 29.57 122.06 29.37C121.65 29.16 121.21 29.05 120.74 29.05C120.27 29.05 119.82 29.13 119.4 29.29C118.99 29.45 118.62 29.69 118.31 30.01C118.01 30.32 117.77 30.72 117.59 31.18C117.42 31.64 117.33 32.17 117.33 32.77Q117.33 33.66 117.59 34.37C117.77 34.83 118.01 35.22 118.31 35.53C118.62 35.85 118.99 36.09 119.4 36.25C119.82 36.41 120.27 36.49 120.74 36.49C121.21 36.49 121.65 36.39 122.06 36.18C122.48 35.97 122.85 35.69 123.16 35.35C123.47 35 123.72 34.61 123.89 34.16C124.08 33.71 124.17 33.25 124.17 32.77ZM181.76 32.77C181.76 32.24 181.67 31.75 181.48 31.3C181.31 30.84 181.06 30.44 180.75 30.11C180.44 29.78 180.07 29.52 179.65 29.33C179.24 29.14 178.8 29.05 178.33 29.05C177.85 29.05 177.41 29.16 176.99 29.37C176.58 29.57 176.21 29.85 175.9 30.2C175.59 30.54 175.35 30.94 175.17 31.39C174.99 31.83 174.9 32.29 174.9 32.77C174.9 33.3 174.99 33.79 175.17 34.24C175.35 34.69 175.59 35.08 175.9 35.42C176.21 35.75 176.58 36.01 176.99 36.21C177.41 36.4 177.85 36.49 178.33 36.49C178.8 36.49 179.24 36.4 179.65 36.21C180.07 36.01 180.44 35.75 180.75 35.42C181.06 35.08 181.31 34.69 181.48 34.24C181.67 33.79 181.76 33.3 181.76 32.77ZM194.3 29.19C194.14 29.13 193.98 29.09 193.82 29.07C193.67 29.06 193.51 29.05 193.34 29.05C192.87 29.05 192.42 29.14 192 29.32C191.59 29.49 191.23 29.73 190.91 30.06C190.61 30.38 190.37 30.78 190.19 31.24C190.02 31.69 189.93 32.2 189.93 32.77C189.93 32.9 189.93 33.04 189.94 33.21C189.96 33.37 189.98 33.53 190.01 33.7C190.04 33.87 190.08 34.02 190.12 34.18C190.16 34.33 190.22 34.47 190.28 34.59L194.3 29.19Z" fill="#FFFFFF" fill-opacity="1.000000" fill-rule="evenodd"/>
</svg>
