<svg width="24.000000" height="24.000000" viewBox="0 0 24 24" fill="none" xmlns="http://www.w3.org/2000/svg" xmlns:xlink="http://www.w3.org/1999/xlink">
	<desc>
			Created with Pixso.
	</desc>
	<defs>
		<clipPath id="clip320_140">
			<rect id="Icon" width="24.000000" height="24.000000" transform="translate(-0.500000 0.000000)" fill="white" fill-opacity="0"/>
		</clipPath>
	</defs>
	<g clip-path="url(#clip320_140)">
		<path id="Vector" d="M18.61 5.63C22.12 9.15 22.12 14.84 18.61 18.36M15.96 8.28C18.01 10.33 18.01 13.66 15.96 15.71M10.96 3.53C11.44 3.05 12.25 3.39 12.25 4.06L12.25 19.93C12.25 20.6 11.44 20.94 10.96 20.46L6.25 15.75L4 15.75C3.12 15.75 2.3 15.24 2.07 14.39C1.86 13.63 1.75 12.82 1.75 12C1.75 11.17 1.86 10.36 2.07 9.6C2.3 8.75 3.12 8.25 4 8.25L6.25 8.25L10.96 3.53Z" stroke="#FFFFFF" stroke-opacity="1.000000" stroke-width="2.000000" stroke-linejoin="round"/>
	</g>
</svg>
